<svg xmlns="http://www.w3.org/2000/svg" viewBox="0 0 40 40" fill="none">
  <rect width="40" height="40" rx="9" fill="#0f2035"/>
  <!-- Leaf -->
  <path d="M20 7 C20 7 29 11.5 29 20.5 C29 26.5 24.5 31 20 32 C15.5 31 11 26.5 11 20.5 C11 11.5 20 7 20 7Z" fill="#34d399" opacity="0.18"/>
  <path d="M20 7 C20 7 29 11.5 29 20.5 C29 26.5 24.5 31 20 32 C15.5 31 11 26.5 11 20.5 C11 11.5 20 7 20 7Z" stroke="#34d399" stroke-width="1.6" fill="none"/>
  <!-- Center vein -->
  <path d="M20 10 L20 32" stroke="#34d399" stroke-width="1.1" stroke-linecap="round" opacity="0.5"/>
  <!-- Bolt -->
  <path d="M22.5 12.5 L17.5 21 L21 21 L17.5 28.5 L24.5 18.5 L21 18.5 Z" fill="#34d399"/>
  <!-- Stem -->
  <line x1="20" y1="32" x2="20" y2="36" stroke="#34d399" stroke-width="1.6" stroke-linecap="round" opacity="0.6"/>
</svg>
